# xmcd
#
# Track frame offsets: 
#        150
#        19654
#        42243
#        64056
#        80171
#        97007
#        117150
#        134779
#        153056
#        171645
#        196403
#        214418
#        233540
#        245930
#        265507
#        285223
#        303675
#
# Disc length: 4303 seconds
#
# Revision: 2
# Processed by: cddbd v1.5.2PL0 Copyright (c) Steve Scherf et al.
# Submitted via: ExactAudioCopy v0.99pb3
#
DISCID=f810cd11
DTITLE=Various Artist - X-Mix Radioactive Series  April 1996
DYEAR=1996
DGENRE=
TTITLE0=Mariah Carey - Always Be My Baby (Album Version)
TTITLE1=La Bouche - Sweet Dreams (X-Mix Re-Edit)
TTITLE2=Joe - All The Things (Radio Edit)
TTITLE3=Corrs, The - The Right Time (Radio Mix)
TTITLE4=DJ Boom - To The Top (X-Mix Re-Edit)
TTITLE5=R. Kelly - Down Low ((Radio Version #1)
TTITLE6=Dog's Eye View - Everything Falls Apart (Album Version)
TTITLE7=Tina Arena - Chains (Album Version)
TTITLE8=D'Angelo - Lady (Radio Edit)
TTITLE9=Smashing Pumpkins - 1979 (X-Mix Re-Edit)
TTITLE10=Outhere Brothers, The - Don't Stop (Wiggle Wiggle) (X-Mix Re-
TTITLE10=Edit)
TTITLE11=Selena - I'm Getting Used To You (X-Mix Re-Edit)
TTITLE12=Bottle Rockets, The - I'll Be Comin' Around (Alub Version)
TTITLE13=Los Locos - El Tiburon (Radio Edit)
TTITLE14=Yvette Michelle - Everyday and Everynight (X-Mix Re-Edit)
TTITLE15=Sophie B. Hawkins - Only Love (Radio Edit)
TTITLE16=Quad City DJ's - C'Mon 'N Ride It (The Train) (X-Mix Re-Edit)
EXTD=
EXTT0=
EXTT1=
EXTT2=
EXTT3=
EXTT4=
EXTT5=
EXTT6=
EXTT7=
EXTT8=
EXTT9=
EXTT10=
EXTT11=
EXTT12=
EXTT13=
EXTT14=
EXTT15=
EXTT16=
PLAYORDER=
